<svg id="Layer_1" data-name="Layer 1" xmlns="http://www.w3.org/2000/svg" viewBox="0 0 5053.6 4879.9"><defs><style>.cls-1{fill:#fff;}</style></defs><path class="cls-1" d="M106.2,193.2c.9,2.6,2526.3,4878.7,2526.8,4878.7S5158.9,195.8,5159.8,193.2c.3-.9-52.9-1.2-254.1-1.2H4651.3L3642.4,1947.5C3087.6,2913,2633.3,3703,2633,3703s-454.5-789.9-1009.3-1755.3L615.1,192.5l-254.6-.3C158.8,192,105.9,192.3,106.2,193.2Z" transform="translate(-106.2 -192)"/><path class="cls-1" d="M833.3,193.2C835.2,198,2632.2,3323.5,2633,3323.5S4430.8,198,4432.7,193.2c.4-1-50.7-1.2-254.8-1l-255.3.3L3278,1314.2c-354.5,617-644.7,1121.7-645,1121.7s-290.5-504.7-645-1121.7L1343.4,192.5l-255.3-.3C884,192,832.9,192.2,833.3,193.2Z" transform="translate(-106.2 -192)"/><path class="cls-1" d="M1562.4,193.7C1563.8,197.2,2632.3,2056,2633,2056S3702.2,197.2,3703.6,193.7c.6-1.6-17.1-1.7-252.3-1.7h-253L2915.9,683.5C2760.6,953.8,2633.3,1175,2633,1175s-127.6-221.2-282.9-491.5L2067.7,192h-253C1579.8,192,1561.8,192.1,1562.4,193.7Z" transform="translate(-106.2 -192)"/></svg>